<svg height="512pt" viewBox="0 -3 512 512" width="512pt" xmlns="http://www.w3.org/2000/svg"><path d="m292.898438 441.117188v64.460937h-282.636719v-64.460937c0-27.699219 22.449219-50.148438 50.136719-50.148438h182.351562c27.699219 0 50.148438 22.449219 50.148438 50.148438zm0 0" fill="#3b485b"/><path d="m292.898438 441.117188v64.460937h-265.453126v-64.460937c0-27.699219 22.449219-50.148438 50.144532-50.148438h165.160156c27.699219 0 50.148438 22.449219 50.148438 50.148438zm0 0" fill="#515f75"/><path d="m61.816406 390.972656-3.042968 77.117188 32.417968 8.105468-29.109375 29.105469h178.992188l-29.105469-29.105469 32.417969-8.105468-3.042969-77.117188" fill="#3b485b"/><path d="m213.378906 390.972656-32.652344 114.597656h-58.289062l-32.652344-114.597656" fill="#f2f2f2"/><path d="m111.644531 419.105469 39.9375 49.996093 39.542969-49.804687-39.542969-7.390625z" fill="#f74866"/><path d="m108.132812 455.355469 43.449219-43.449219 43.449219 43.449219 18.347656-64.382813h-123.59375zm0 0" fill="#e6e6e6"/><path d="m188.730469 326.585938v64.390624l-37.148438 20.929688-11.476562-6.464844-25.671875-14.464844v-64.429687l25.671875.011719zm0 0" fill="#f9c2af"/><path d="m122.640625 505.570312 28.941406-36.46875 29.144531 36.46875" fill="#f74866"/><path d="m140.105469 326.558594-25.671875-.011719v64.429687l25.671875 14.464844v-29.789062c3.792969.371094 7.636719.582031 11.527343.582031 12.96875 0 25.449219-2.117187 37.097657-6.027344v-43.621093zm0 0" fill="#ea9e8f"/><path d="m35.023438 258.796875c-19.34375 0-35.023438-14.039063-35.023438-31.355469 0-17.3125 15.679688-31.351562 35.023438-31.351562h233.226562c19.339844 0 35.023438 14.039062 35.023438 31.351562 0 17.316406-15.679688 31.355469-35.023438 31.355469" fill="#ea9e8f"/><path d="m268.25 127.472656v116.617188c0 64.402344-52.207031 116.613281-116.617188 116.613281-32.195312 0-61.359374-13.054687-82.457031-34.15625-21.097656-21.097656-34.152343-50.261719-34.152343-82.457031v-116.617188zm0 0" fill="#f9c2af"/><path d="m150.808594 360.699219c-31.878906-.214844-60.703125-13.226563-81.632813-34.148438-21.101562-21.109375-34.152343-50.253906-34.152343-82.460937v-116.617188h52.5v116.617188c0 32.207031 7.171874 61.351562 18.773437 82.460937 11.425781 20.773438 27.132813 33.742188 44.511719 34.148438zm0 0" fill="#ea9e8f"/><path d="m132.554688 237.460938c0-4.273438 3.460937-7.734376 7.734374-7.734376h16.207032c4.269531 0 7.734375 3.460938 7.734375 7.734376 0 4.269531-3.464844 7.734374-7.734375 7.734374h-16.207032c-4.273437 0-7.734374-3.464843-7.734374-7.734374zm0 0" fill="#293544"/><path d="m268.25 127.472656v29.222656c-7.988281 5.722657-17.550781 10.746094-28.902344 14.839844-42.257812 15.21875-83.167968 10.097656-112.09375 2.03125 0 0-.011718 0-.011718-.011718-25.199219-7.011719-41.308594-16.269532-41.308594-16.269532s-10.632813 51.179688-50.910156 51.179688v-80.992188zm0 0" fill="#ea9e8f"/><path d="m239.34375 159.160156c-42.253906 15.226563-83.160156 10.101563-112.09375 2.035156 0 0-.011719 0-.011719-.007812-25.195312-7.023438-41.300781-16.28125-41.300781-16.28125s-10.636719 51.179688-50.914062 51.179688c0 0-26.796876-47.398438-25.957032-91.253907.4375-22.742187 19.1875-39.753906 40.5-39.753906 3.984375 0 8.054688.589844 12.109375 1.855469 11.414063-30.65625 41.574219-50.054688 74.222657-48.070313 5.085937.316407 10.203124.71875 15.339843 1.183594.980469.082031 1.976563.171875 2.957031.265625.101563.007812.203126.019531.304688.03125 53.296875 5.003906 107.28125 14.746094 139-20.34375 0 0 52.425781 120.765625-54.15625 159.160156zm0 0" fill="#515f75"/><path d="m135.902344 18.863281c5.082031.316407 10.199218.71875 15.335937 1.183594-47.023437-1.984375-84.386719 101.578125-24 141.140625-25.191406-7.023438-41.300781-16.28125-41.300781-16.28125s-10.636719 51.179688-50.914062 51.179688c0 0-26.796876-47.398438-25.957032-91.253907.4375-22.742187 19.1875-39.753906 40.503906-39.753906 3.980469 0 8.050782.589844 12.105469 1.855469 11.414063-30.65625 41.574219-50.054688 74.226563-48.070313zm0 0" fill="#3b485b"/><path d="m154.519531 20.351562c-.109375-.019531-.210937-.027343-.324219-.039062.101563.011719.203126.019531.304688.03125zm0 0" fill="#f4af9d"/><path d="m175.289062 323.136719c-12.371093 0-24.746093-4.707031-34.164062-14.125-3.066406-3.070313-3.066406-8.046875 0-11.113281 3.070312-3.066407 8.042969-3.066407 11.109375 0 12.714844 12.714843 33.398437 12.714843 46.109375 0 3.070312-3.066407 8.042969-3.066407 11.109375 0 3.070313 3.070312 3.070313 8.042968 0 11.113281-9.417969 9.417969-21.789063 14.125-34.164063 14.125zm0 0" fill="#e06e86"/><path d="m399.296875 288.90625v52.917969h-65.886719v-52.917969h10.976563 43.933593zm0 0" fill="#f4af9d"/><path d="m399.296875 288.90625v52.917969h-39.332031v-52.917969zm0 0" fill="#f9c2af"/><path d="m333.410156 341.820312h65.882813v163.390626h-65.882813zm0 0" fill="#515f75"/><path d="m333.410156 341.820312h26.355469v163.390626h-26.355469zm0 0" fill="#3b485b"/><path d="m463.683594 176.089844v122.980468h-110.335938c-25.757812 0-52.664062-25.652343-54.09375-57.96875-.058594-1.160156-.082031-2.332031-.082031-3.515624 0-33.96875 27.492187-61.496094 54.175781-61.496094zm0 0" fill="#dd8c22"/><path d="m211.675781 273.570312h-22.441406c-15.613281 0-28.277344-16.105468-28.277344-35.984374 0-19.878907 12.664063-35.996094 28.277344-35.996094h22.453125" fill="#dd8c22"/><path d="m367.054688 176.089844v122.980468h-116.195313c-25.757813 0-46.808594-25.652343-48.234375-57.96875-.058594-1.160156-.082031-2.332031-.082031-3.515624 0-33.96875 21.632812-61.496094 48.316406-61.496094zm0 0" fill="#efa233"/><path d="m352.796875 241.101562v57.96875h-101.941406c-25.757813 0-46.804688-25.652343-48.234375-57.96875zm0 0" fill="#dd8c22"/><path d="m415.371094 237.585938c0 23.132812-10.050782 43.292968-24.890625 53.785156-6.933594 4.910156-14.925781 7.695312-23.425781 7.695312-26.683594 0-48.320313-27.523437-48.320313-61.480468 0-33.96875 21.636719-61.496094 48.320313-61.496094 8.503906 0 16.492187 2.800781 23.425781 7.707031 14.839843 10.484375 24.890625 30.644531 24.890625 53.789063zm0 0" fill="#79bbe8"/><path d="m415.371094 237.585938c0 23.132812-10.050782 43.292968-24.890625 53.785156-14.84375-10.492188-24.890625-30.652344-24.890625-53.785156 0-23.144532 10.050781-43.304688 24.890625-53.789063 14.839843 10.484375 24.890625 30.644531 24.890625 53.789063zm0 0" fill="#aedbf4"/><path d="m512 237.582031c0-33.960937-21.632812-61.492187-48.316406-61.492187s-48.3125 27.53125-48.3125 61.492187c0 33.960938 21.628906 61.492188 48.3125 61.492188s48.316406-27.53125 48.316406-61.492188zm0 0" fill="#79bbe8"/><path d="m512 237.585938c0 23.132812-10.050781 43.292968-24.890625 53.785156-14.839844-10.492188-24.890625-30.652344-24.890625-53.785156 0-23.144532 10.050781-43.304688 24.890625-53.789063 14.839844 10.484375 24.890625 30.644531 24.890625 53.789063zm0 0" fill="#aedbf4"/><path d="m307.0625 284.203125v54.914063h-65.886719v-54.914063c0-6.066406 4.917969-10.972656 10.976563-10.972656h43.933594c6.054687 0 10.976562 4.90625 10.976562 10.972656zm0 0" fill="#f4af9d"/><path d="m307.0625 284.203125v54.914063h-39.332031v-54.914063c0-6.066406 4.90625-10.972656 10.972656-10.972656h17.382813c6.054687 0 10.976562 4.90625 10.976562 10.972656zm0 0" fill="#f9c2af"/><path d="m241.175781 339.113281h65.882813v166.097657h-65.882813zm0 0" fill="#515f75"/><path d="m241.175781 339.113281h26.355469v166.097657h-26.355469zm0 0" fill="#3b485b"/></svg>